<svg width="58" height="32" viewBox="0 0 58 32" fill="none" xmlns="http://www.w3.org/2000/svg">
<path d="M10.74 3.66L8.95 0L0 15.85L4 15.61L10.74 3.66Z" fill="white"/>
<path d="M53.6094 16.0901L46.8594 28.0401L48.6594 31.7001L57.5994 15.8501L53.6094 16.0901Z" fill="white"/>
<path d="M45.0813 7.32L43.2812 10.98L45.6213 15.13L53.6113 15.61L57.6012 15.85L48.6613 0L46.8613 3.66L45.0813 7.32Z" fill="white"/>
<path d="M13.3531 6.84H44.2631L48.6631 0H8.95312L11.1531 3.42L13.3531 6.84Z" fill="white"/>
<path d="M44.2631 24.8701H13.3531L11.1531 28.2801L8.95312 31.7001H48.6631L46.4631 28.2801L44.2631 24.8701Z" fill="white"/>
<path d="M14.33 20.7301L11.99 16.5801L0 15.8501L8.95 31.7001L10.74 28.0401L14.33 20.7301Z" fill="white"/>
</svg>
